<svg id="visual" viewBox="0 0 960 540" width="960" height="540" xmlns="http://www.w3.org/2000/svg" xmlns:xlink="http://www.w3.org/1999/xlink" version="1.1"><path d="M0 87L26.7 97C53.3 107 106.7 127 160 132.5C213.3 138 266.7 129 320 128C373.3 127 426.7 134 480 133C533.3 132 586.7 123 640 124.8C693.3 126.7 746.7 139.3 800 143C853.3 146.7 906.7 141.3 933.3 138.7L960 136L960 0L933.3 0C906.7 0 853.3 0 800 0C746.7 0 693.3 0 640 0C586.7 0 533.3 0 480 0C426.7 0 373.3 0 320 0C266.7 0 213.3 0 160 0C106.7 0 53.3 0 26.7 0L0 0Z" fill="#c175da"></path><path d="M0 131L26.7 141.7C53.3 152.3 106.7 173.7 160 183.5C213.3 193.3 266.7 191.7 320 193.5C373.3 195.3 426.7 200.7 480 196.2C533.3 191.7 586.7 177.3 640 177.3C693.3 177.3 746.7 191.7 800 202.5C853.3 213.3 906.7 220.7 933.3 224.3L960 228L960 134L933.3 136.7C906.7 139.3 853.3 144.7 800 141C746.7 137.3 693.3 124.7 640 122.8C586.7 121 533.3 130 480 131C426.7 132 373.3 125 320 126C266.7 127 213.3 136 160 130.5C106.7 125 53.3 105 26.7 95L0 85Z" fill="#b761d4"></path><path d="M0 168L26.7 184.3C53.3 200.7 106.7 233.3 160 246.8C213.3 260.3 266.7 254.7 320 247.3C373.3 240 426.7 231 480 223.8C533.3 216.7 586.7 211.3 640 211.3C693.3 211.3 746.7 216.7 800 223.8C853.3 231 906.7 240 933.3 244.5L960 249L960 226L933.3 222.3C906.7 218.7 853.3 211.3 800 200.5C746.7 189.7 693.3 175.3 640 175.3C586.7 175.3 533.3 189.7 480 194.2C426.7 198.7 373.3 193.3 320 191.5C266.7 189.7 213.3 191.3 160 181.5C106.7 171.7 53.3 150.3 26.7 139.7L0 129Z" fill="#ad4cce"></path><path d="M0 271L26.7 281.8C53.3 292.7 106.7 314.3 160 318.8C213.3 323.3 266.7 310.7 320 311.5C373.3 312.3 426.7 326.7 480 319.5C533.3 312.3 586.7 283.7 640 283.7C693.3 283.7 746.7 312.3 800 332.2C853.3 352 906.7 363 933.3 368.5L960 374L960 247L933.3 242.5C906.7 238 853.3 229 800 221.8C746.7 214.7 693.3 209.3 640 209.3C586.7 209.3 533.3 214.7 480 221.8C426.7 229 373.3 238 320 245.3C266.7 252.7 213.3 258.3 160 244.8C106.7 231.3 53.3 198.7 26.7 182.3L0 166Z" fill="#a333c8"></path><path d="M0 347L26.7 353.2C53.3 359.3 106.7 371.7 160 375.2C213.3 378.7 266.7 373.3 320 375.2C373.3 377 426.7 386 480 379.7C533.3 373.3 586.7 351.7 640 358.8C693.3 366 746.7 402 800 421.8C853.3 441.7 906.7 445.3 933.3 447.2L960 449L960 372L933.3 366.5C906.7 361 853.3 350 800 330.2C746.7 310.3 693.3 281.7 640 281.7C586.7 281.7 533.3 310.3 480 317.5C426.7 324.7 373.3 310.3 320 309.5C266.7 308.7 213.3 321.3 160 316.8C106.7 312.3 53.3 290.7 26.7 279.8L0 269Z" fill="#942fb6"></path><path d="M0 476L26.7 484.2C53.3 492.3 106.7 508.7 160 515.8C213.3 523 266.7 521 320 516.5C373.3 512 426.7 505 480 498.8C533.3 492.7 586.7 487.3 640 486.3C693.3 485.3 746.7 488.7 800 494.8C853.3 501 906.7 510 933.3 514.5L960 519L960 447L933.3 445.2C906.7 443.3 853.3 439.7 800 419.8C746.7 400 693.3 364 640 356.8C586.7 349.7 533.3 371.3 480 377.7C426.7 384 373.3 375 320 373.2C266.7 371.3 213.3 376.7 160 373.2C106.7 369.7 53.3 357.3 26.7 351.2L0 345Z" fill="#852aa4"></path><path d="M0 541L26.7 541C53.3 541 106.7 541 160 541C213.3 541 266.7 541 320 541C373.3 541 426.7 541 480 541C533.3 541 586.7 541 640 541C693.3 541 746.7 541 800 541C853.3 541 906.7 541 933.3 541L960 541L960 517L933.3 512.5C906.7 508 853.3 499 800 492.8C746.7 486.7 693.3 483.3 640 484.3C586.7 485.3 533.3 490.7 480 496.8C426.7 503 373.3 510 320 514.5C266.7 519 213.3 521 160 513.8C106.7 506.7 53.3 490.3 26.7 482.2L0 474Z" fill="#772692"></path></svg>